<?xml version="1.0" encoding="UTF-8" standalone="no"?>
<!-- Created with Inkscape (http://www.inkscape.org/) -->

<svg
   width="45.088722mm"
   height="29.808315mm"
   viewBox="0 0 45.088722 29.808315"
   version="1.1"
   id="svg1"
   xmlns:xlink="http://www.w3.org/1999/xlink"
   xmlns="http://www.w3.org/2000/svg"
   xmlns:svg="http://www.w3.org/2000/svg">
  <defs
     id="defs1">
    <linearGradient
       id="linearGradient26">
      <stop
         style="stop-color:#ff0000;stop-opacity:1;"
         offset="0.60665363"
         id="stop26" />
      <stop
         style="stop-color:#490000;stop-opacity:1;"
         offset="1"
         id="stop27" />
    </linearGradient>
    <radialGradient
       xlink:href="#linearGradient26"
       id="radialGradient27"
       cx="78.816203"
       cy="105.40266"
       fx="78.816203"
       fy="105.40266"
       r="22.544367"
       gradientTransform="matrix(1,0,0,0.66110829,0,35.720089)"
       gradientUnits="userSpaceOnUse" />
    <radialGradient
       xlink:href="#linearGradient26"
       id="radialGradient28"
       gradientUnits="userSpaceOnUse"
       gradientTransform="matrix(1,0,0,0.66110829,0,35.720089)"
       cx="78.816203"
       cy="105.40266"
       fx="78.816203"
       fy="105.40266"
       r="22.544367" />
    <radialGradient
       xlink:href="#linearGradient26"
       id="radialGradient29"
       gradientUnits="userSpaceOnUse"
       gradientTransform="matrix(1,0,0,0.66110829,0,35.720089)"
       cx="78.816203"
       cy="105.40266"
       fx="78.816203"
       fy="105.40266"
       r="22.544367" />
  </defs>
  <g
     id="layer1"
     transform="translate(-56.271839,-90.498403)">
    <g
       id="text1"
       style="font-size:12.7px;line-height:0.7;font-family:Castellar;-inkscape-font-specification:Castellar;text-align:center;text-anchor:middle;fill:none;stroke:#800000;stroke-width:0.486;stroke-dasharray:none"
       aria-label="Time&#10;of&#10;Tribes"
       transform="translate(0.00842043)">
      <path
         style="fill:none;stroke:#800000;stroke-width:0.486;stroke-dasharray:none"
         d="m 65.703821,90.845668 v 8.607227 H 66.1193 v -8.607227 z m -2.678906,-0.229443 h 5.382617 q 0.489892,0 0.89917,-0.02481 0.409277,-0.03101 1.054199,-0.09302 l 0.142627,2.009179 h -0.07441 l -0.458887,-1.463476 q -0.564306,-0.09922 -1.178222,-0.09922 -0.5271,0 -0.961182,0.05581 -0.434082,0.05581 -0.936377,0.186036 -0.04961,0.576709 -0.07441,1.116211 -0.02481,0.5333 -0.03721,0.992187 -0.0124,0.452686 -0.0124,0.620117 v 2.058789 q 0,0.812354 0.05581,1.823145 0.05581,1.00459 0.136426,1.606103 l 1.531689,0.229444 v 0.06201 h -4.681884 v -0.06201 l 1.506884,-0.229444 q 0.192237,-1.370459 0.192237,-3.317627 v -2.244824 q 0,-0.694531 -0.03101,-1.370459 -0.03101,-0.675928 -0.10542,-1.283642 -0.359668,-0.09922 -0.837158,-0.15503 -0.477491,-0.06201 -0.905371,-0.07441 -0.675928,0 -1.333252,0.111621 l -0.446485,1.475879 h -0.08682 L 61.902502,90.5108 q 0.186035,0.0124 0.539502,0.06201 0.353466,0.04341 0.58291,0.04341 z m 9.729638,0.241846 v 8.594824 h 0.434082 v -8.594824 z m 2.796729,8.836669 h -4.688086 v -0.06201 l 1.513086,-0.229444 q 0.10542,-0.775146 0.155029,-1.866552 0.05581,-1.097608 0.05581,-2.145606 V 94.34933 q 0,-2.127002 -0.186036,-3.454052 l -1.53789,-0.217041 v -0.06201 h 4.688086 v 0.06201 l -1.550293,0.217041 q -0.06821,0.601513 -0.09922,1.091406 -0.03101,0.483691 -0.05581,1.178222 -0.0248,0.68833 -0.0248,1.296045 v 1.370459 q 0,0.378272 0.0248,1.240235 0.03101,0.855761 0.07442,1.451074 0.04961,0.595312 0.09302,0.892969 l 1.537891,0.217041 z m 1.69292,-8.836669 4.483447,8.278564 0.217041,-0.42168 -4.266406,-7.856884 z m 9.035107,0.403076 -0.359668,0.725537 0.545703,7.466211 h 0.446484 L 86.304113,91.261147 Z M 75.70011,90.616225 h 2.666504 q 0.334863,0.74414 0.570507,1.215429 0.235645,0.47129 0.570508,1.103809 l 1.742529,3.230811 q 0.644922,1.16582 1.079004,1.74873 0.359668,-0.58291 1.141016,-2.083594 l 1.5875,-2.982763 q 0.682129,-1.296045 1.041797,-2.232422 h 2.654101 v 0.06201 l -1.649511,0.229443 q -0.03721,0.545703 -0.03721,1.091406 0,0.570508 0.10542,2.337842 0.111621,1.761133 0.26665,3.286621 0.155029,1.519287 0.285254,1.792139 l 1.141015,0.217041 v 0.06201 h -4.254003 v -0.06201 l 1.475878,-0.217041 q 0.04961,-0.471289 0.04961,-1.271241 0,-0.440283 -0.03101,-1.147216 -0.03101,-0.713135 -0.09922,-1.630909 -0.06201,-0.923974 -0.155029,-1.705322 -0.09302,-0.781347 -0.173633,-1.054199 -0.291455,0.465088 -0.607715,1.066601 l -2.412256,4.520655 q -0.570507,1.110009 -0.762744,1.5875 h -0.08682 Q 81.678039,99.496303 81.36178,98.869984 81.04552,98.243666 80.853283,97.890199 l -2.021582,-3.745507 q -0.514697,-0.954981 -0.84956,-1.525489 -0.04341,0.248047 -0.130225,1.128614 -0.08682,0.880566 -0.167431,1.90996 -0.07441,1.029395 -0.117823,1.754932 -0.03721,0.725537 -0.03721,1.141016 0,0.291455 0.02481,0.84956 l 1.178223,0.229444 v 0.06201 h -3.044776 v -0.06201 l 1.178223,-0.229444 q 0.08682,-0.260449 0.235645,-1.717724 0.148828,-1.457276 0.260449,-2.995166 0.111621,-1.544092 0.111621,-2.232422 0,-0.241846 -0.02481,-0.750342 -0.179834,-0.37207 -0.694531,-0.799951 L 75.70011,90.678237 Z m 15.199072,0.241846 v 8.594824 h 0.427881 v -8.594824 z m -1.885156,-0.179834 v -0.06201 h 6.604248 l 0.155029,1.928564 h -0.09922 L 95.2276,91.031703 q -0.527099,-0.03721 -1.184424,-0.03721 -1.196826,0 -1.928564,0.167432 -0.124023,1.00459 -0.124023,2.294433 0,0.806153 0.04961,1.308448 0.979785,0.05581 1.246435,0.05581 0.700733,0 1.444874,-0.08061 l 0.279052,-1.054199 h 0.10542 v 2.641699 h -0.10542 l -0.291455,-1.116211 q -0.539502,-0.06201 -1.190625,-0.06201 -0.818554,0 -1.488281,0.07441 -0.08062,0.719336 -0.04961,1.407666 0.0124,0.880567 0.031,1.457276 0.0186,0.570508 0.06821,0.985986 0.756543,0.229443 1.984375,0.229443 0.706934,0 1.190625,-0.05581 l 0.496094,-1.494482 h 0.08682 L 95.711292,99.69474 H 89.03263 v -0.06201 l 1.48208,-0.217041 q 0.04961,-0.254248 0.08682,-0.775147 0.04341,-0.520898 0.07441,-1.16582 0.03101,-0.651123 0.04341,-1.085205 0.0124,-0.440283 0.0124,-0.768946 v -1.562695 q 0,-0.297656 -0.0186,-0.843359 -0.0186,-0.551905 -0.05581,-1.141016 -0.03721,-0.589111 -0.10542,-1.178222 z"
         id="path24" />
      <path
         style="fill:none;stroke:#800000;stroke-width:0.486;stroke-dasharray:none"
         d="m 60.209583,111.39563 v 8.60723 h 0.415478 v -8.60723 z m -2.678906,-0.22944 h 5.382617 q 0.489892,0 0.89917,-0.0248 0.409277,-0.031 1.054199,-0.093 l 0.142627,2.00918 h -0.07441 l -0.458887,-1.46348 q -0.564307,-0.0992 -1.178223,-0.0992 -0.527099,0 -0.961181,0.0558 -0.434082,0.0558 -0.936377,0.18604 -0.04961,0.57671 -0.07441,1.11621 -0.02481,0.5333 -0.03721,0.99219 -0.0124,0.45268 -0.0124,0.62011 v 2.05879 q 0,0.81236 0.05581,1.82315 0.05581,1.00459 0.136426,1.6061 l 1.531689,0.22944 v 0.062 h -4.681885 v -0.062 l 1.506885,-0.22944 q 0.192236,-1.37046 0.192236,-3.31763 v -2.24482 q 0,-0.69453 -0.03101,-1.37046 -0.03101,-0.67593 -0.10542,-1.28364 -0.359668,-0.0992 -0.837158,-0.15503 -0.477491,-0.062 -0.905372,-0.0744 -0.675927,0 -1.333252,0.11162 l -0.446484,1.47588 h -0.08682 l 0.136425,-2.03399 q 0.186036,0.0124 0.539502,0.062 0.353467,0.0434 0.582911,0.0434 z m 9.537402,5.38262 v -1.91616 q 0,-0.73794 -0.04961,-1.68672 -0.04961,-0.95498 -0.124023,-1.50069 l -1.488281,-0.21704 v -0.062 h 4.07417 q 1.159619,0 1.847949,0.46509 0.694531,0.45889 0.961181,1.0542 0.266651,0.58911 0.266651,1.01699 0,0.58911 -0.266651,1.0542 -0.26665,0.45889 -0.700732,0.73174 -0.427881,0.27285 -0.874365,0.32246 v 0.0248 q 0.421679,0.16743 0.700732,0.44649 0.217041,0.21704 0.496094,0.61391 0.279053,0.39068 0.737939,1.07281 0.458887,0.68212 0.73794,1.0666 0.279053,0.38447 0.514697,0.62632 0.520898,0.52089 1.029395,0.52089 v 0.062 h -1.079004 q -0.905371,0 -1.438672,-0.54571 -0.21084,-0.21084 -0.42168,-0.49609 -0.204639,-0.29146 -0.657324,-0.94878 -0.446484,-0.65732 -0.756543,-1.08521 -0.303857,-0.42788 -0.483691,-0.60771 -0.266651,-0.26665 -0.489893,-0.35347 -0.217041,-0.093 -0.644922,-0.093 -0.390674,0 -0.607715,0.0434 -0.03721,0.33487 -0.03721,0.74414 v 1.14722 q 0,0.72554 0.15503,1.91616 l 1.544091,0.21704 v 0.062 h -4.60747 v -0.062 l 1.457275,-0.21704 q 0.09302,-0.62631 0.148828,-1.76113 0.05581,-1.13481 0.05581,-1.65571 z m 1.234033,-2.83394 v 1.01699 q 0,0.53951 0.03721,1.00459 0.241846,0.0372 0.700732,0.0372 0.79375,0 1.277442,-0.27285 0.489892,-0.27285 0.694531,-0.70693 0.21084,-0.44029 0.21084,-0.96119 0,-0.51469 -0.204639,-0.94877 -0.198437,-0.43409 -0.520898,-0.73174 -0.31626,-0.30386 -0.713135,-0.46509 -0.390674,-0.16743 -0.768945,-0.16743 -0.359668,0 -0.564307,0.0496 -0.05581,0.35966 -0.10542,1.02939 -0.04341,0.66973 -0.04341,1.11621 z m 2.232422,3.07578 1.345654,1.95337 q 0.483691,0.68833 0.861963,0.98599 0.378271,0.29145 0.892969,0.29766 v -0.062 q -0.489893,-0.14262 -1.258838,-1.25883 l -1.079004,-1.5503 q -0.347266,-0.50849 -0.651123,-0.76894 -0.303858,-0.26045 -0.744141,-0.34727 l -0.0248,0.0496 q 0.347265,0.22324 0.657324,0.70073 z m -3.311426,-5.38261 v 8.59482 h 0.446484 v -8.59482 z m 1.699121,-0.10542 v 0.062 q 0.849561,0.0186 1.420068,0.41548 0.576709,0.39067 0.837159,0.96118 0.260449,0.57051 0.260449,1.12861 0,1.24024 -1.079004,1.79214 l 0.03721,0.0248 q 0.63252,-0.16123 1.041797,-0.68833 0.415478,-0.52709 0.415478,-1.25883 0,-0.57051 -0.223242,-1.0294 -0.223242,-0.46509 -0.607715,-0.77514 -0.378271,-0.31006 -0.84956,-0.47129 -0.471289,-0.16123 -0.948779,-0.16123 z m 8.129736,0.10542 v 8.59482 h 0.434082 v -8.59482 z m 2.796728,8.83667 h -4.688086 v -0.062 l 1.513086,-0.22944 q 0.10542,-0.77515 0.15503,-1.86655 0.05581,-1.09761 0.05581,-2.14561 v -1.04179 q 0,-2.12701 -0.186035,-3.45406 l -1.537891,-0.21704 v -0.062 h 4.688086 v 0.062 l -1.550293,0.21704 q -0.06821,0.60152 -0.09922,1.09141 -0.03101,0.48369 -0.05581,1.17822 -0.02481,0.68833 -0.02481,1.29605 v 1.37046 q 0,0.37827 0.02481,1.24023 0.03101,0.85576 0.07441,1.45107 0.04961,0.59532 0.09302,0.89297 l 1.53789,0.21704 z m 0.124025,-0.062 1.556494,-0.22944 q 0.10542,-0.5085 0.167431,-1.74253 0.06201,-1.24023 0.06201,-1.92856 v -1.99678 q 0,-0.84336 -0.04341,-1.6123 -0.04341,-0.77515 -0.117822,-1.22784 L 79.98512,111.2282 v -0.062 h 4.607471 q 0.992187,0 1.575097,0.32246 0.58291,0.31626 0.818555,0.79375 0.235644,0.47749 0.235644,1.00459 0,0.94258 -0.632519,1.49448 -0.626318,0.54571 -1.525488,0.62632 v 0.0248 q 0.930175,0.0434 1.581298,0.38447 0.657325,0.34106 0.992188,0.88057 0.334863,0.5333 0.334863,1.14721 0,0.5209 -0.260449,1.0666 -0.254248,0.54571 -0.936377,0.94258 -0.675928,0.39068 -1.816943,0.39068 h -4.985742 z m 3.91914,-8.67543 q -0.47749,0 -0.719336,0.0744 -0.155029,0.99219 -0.155029,2.35024 0,0.99219 0.03721,1.27124 0.272852,0.11162 0.737939,0.11162 0.620118,0 1.103809,-0.22324 0.483691,-0.22944 0.762744,-0.66972 0.279053,-0.44649 0.279053,-1.09761 0,-0.5023 -0.21084,-0.91157 -0.21084,-0.41548 -0.669727,-0.65733 -0.458886,-0.24804 -1.16582,-0.24804 z m 0.0124,4.14238 q -0.607715,0 -0.849561,0.0868 -0.04961,0.45269 -0.04961,1.47588 0,1.21543 0.08682,2.33164 0.353467,0.19844 0.63252,0.27286 0.285253,0.0744 0.700732,0.0744 0.657324,0 1.147217,-0.22324 0.489892,-0.22945 0.762744,-0.68213 0.279053,-0.45269 0.279053,-1.10381 0,-0.65112 -0.31626,-1.15342 -0.310059,-0.50229 -0.923975,-0.78755 -0.607715,-0.29145 -1.469677,-0.29145 z m -1.965772,-4.25401 v 8.60723 h 0.434082 v -8.60723 z m 2.120801,-0.0806 v 0.0496 q 0.675928,0.0186 1.147217,0.27905 0.47749,0.25425 0.713134,0.70073 0.235645,0.44029 0.235645,1.017 0,0.5457 -0.21084,0.96118 -0.204639,0.40927 -0.5271,0.64492 -0.32246,0.23564 -0.669726,0.32246 v 0.0682 q 0.861963,-0.11782 1.339453,-0.68213 0.483691,-0.5705 0.483691,-1.35185 0,-0.48369 -0.16123,-0.86196 -0.155029,-0.37828 -0.452686,-0.63873 -0.291455,-0.26665 -0.669726,-0.39687 -0.378272,-0.13643 -0.861963,-0.13643 -0.117822,0 -0.365869,0.0248 z m 0.68833,4.2168 v 0.0496 q 0.545703,0.0992 1.023193,0.39068 0.47749,0.28525 0.762744,0.77515 0.291455,0.48369 0.291455,1.15961 0,0.55191 -0.241845,1.0356 -0.235645,0.47749 -0.775147,0.78755 -0.533301,0.31006 -1.339453,0.31006 v 0.0496 q 0.09922,0.031 0.365869,0.031 0.781348,0 1.339453,-0.31006 0.558106,-0.31626 0.830957,-0.82475 0.279053,-0.5085 0.279053,-1.07901 0,-0.68212 -0.291455,-1.20922 -0.291455,-0.5271 -0.868164,-0.83096 -0.570508,-0.31006 -1.37666,-0.33486 z m 5.562449,-4.12378 v 8.59482 h 0.427881 v -8.59482 z m -1.885156,-0.17984 v -0.062 h 6.604248 l 0.155029,1.92857 h -0.09922 l -0.446484,-1.51309 q -0.5271,-0.0372 -1.184424,-0.0372 -1.196826,0 -1.928565,0.16743 -0.124023,1.00459 -0.124023,2.29444 0,0.80615 0.04961,1.30844 0.979786,0.0558 1.246436,0.0558 0.700732,0 1.444873,-0.0806 l 0.279053,-1.0542 h 0.10542 v 2.6417 h -0.10542 l -0.291455,-1.11621 q -0.539502,-0.062 -1.190625,-0.062 -0.818555,0 -1.488282,0.0744 -0.08061,0.71934 -0.04961,1.40767 0.0124,0.88056 0.03101,1.45727 0.0186,0.57051 0.06821,0.98599 0.756543,0.22944 1.984375,0.22944 0.706933,0 1.190625,-0.0558 l 0.496094,-1.49448 h 0.08682 l -0.136426,1.94097 h -6.678662 v -0.062 l 1.48208,-0.21704 q 0.04961,-0.25424 0.08682,-0.77514 0.04341,-0.5209 0.07441,-1.16582 0.03101,-0.65113 0.04341,-1.08521 0.0124,-0.44028 0.0124,-0.76894 v -1.5627 q 0,-0.29766 -0.0186,-0.84336 -0.0186,-0.5519 -0.05581,-1.14101 -0.03721,-0.58912 -0.10542,-1.17823 z m 10.697023,-0.0496 h -0.198437 q -0.682129,0 -1.258838,0.27285 -0.576709,0.27286 -0.911572,0.77515 -0.334864,0.5023 -0.334864,1.13482 0,0.78754 0.68833,1.47587 0.303858,0.29146 0.564307,0.4899 0.266651,0.19843 0.799951,0.5643 0.533301,0.35967 0.849561,0.59532 0.322461,0.22944 0.527099,0.44028 0.55811,0.5581 0.55811,1.24643 0,0.47129 -0.26045,0.91158 -0.254251,0.43408 -0.744144,0.71313 -0.483691,0.27285 -1.141016,0.27905 v 0.0682 q 0.756543,0.0248 1.345655,-0.26665 0.595315,-0.29146 0.905375,-0.76895 0.31626,-0.47749 0.31626,-0.98598 0,-0.44029 -0.14263,-0.79996 -0.14263,-0.35966 -0.5209,-0.73794 -0.217041,-0.21704 -0.781347,-0.60151 -0.564307,-0.39067 -1.141016,-0.78135 -0.576709,-0.39687 -0.843359,-0.65112 -0.651123,-0.64492 -0.651123,-1.42007 0,-0.68213 0.589111,-1.27124 0.595312,-0.58911 1.785937,-0.62012 z m -3.032373,6.89571 0.471289,1.52548 q 0.353467,0.16123 0.824756,0.26045 0.47749,0.0992 0.824756,0.093 0.465088,0 0.849561,-0.16123 0.390673,-0.16123 0.632519,-0.40928 0.248047,-0.24804 0.378279,-0.5581 0.13022,-0.31626 0.13022,-0.61392 0,-0.61391 -0.415481,-1.03559 -0.415479,-0.42168 -1.395264,-1.07901 -0.973584,-0.65732 -1.413867,-1.09761 -0.378272,-0.39067 -0.564307,-0.78134 -0.186035,-0.39688 -0.186035,-0.88057 0,-0.5333 0.291455,-1.0604 0.291455,-0.5271 0.89917,-0.87436 0.607715,-0.35347 1.494482,-0.35347 0.403077,0 0.855762,0.0434 0.452685,0.0372 0.626325,0.0372 0.14882,-0.006 0.27905,-0.006 0.13022,-0.006 0.20464,-0.0124 0.0806,-0.0124 0.16743,-0.0248 l 0.0372,2.1208 h -0.0806 l -0.39067,-1.43247 q -0.861968,-0.37828 -1.500689,-0.37828 -0.533301,0 -0.961182,0.20464 -0.421679,0.19844 -0.657324,0.55191 -0.235644,0.34726 -0.235644,0.78755 0,0.45888 0.316259,0.84336 0.31626,0.37827 0.861963,0.74414 0.551905,0.36586 1.178223,0.77514 0.632524,0.40928 1.010794,0.78755 0.73794,0.73794 0.73794,1.70532 0,0.54571 -0.28525,1.12862 -0.28526,0.57671 -0.96119,0.97978 -0.675927,0.40308 -1.74873,0.40308 -0.378271,0 -0.923974,-0.0434 -0.539502,-0.0434 -0.79375,-0.0434 -0.117822,0 -0.186035,0.006 -0.06201,0.006 -0.198438,0.0186 -0.136426,0.0124 -0.16123,0.0124 l -0.09922,-2.18281 z"
         id="path26" />
    </g>
    <g
       id="text1-9"
       style="font-size:12.7px;line-height:0.7;font-family:Castellar;-inkscape-font-specification:Castellar;text-align:center;text-anchor:middle;fill:url(#radialGradient27);stroke:none;stroke-width:0.686001"
       aria-label="Time&#10;of&#10;Tribes"
       transform="translate(-3.385498e-6,-0.01604228)">
      <path
         style="fill:url(#radialGradient28);stroke:none;stroke-width:0.686"
         d="m 65.703821,90.845668 v 8.607227 H 66.1193 v -8.607227 z m -2.678906,-0.229443 h 5.382617 q 0.489892,0 0.89917,-0.02481 0.409277,-0.03101 1.054199,-0.09302 l 0.142627,2.009179 h -0.07441 l -0.458887,-1.463476 q -0.564306,-0.09922 -1.178222,-0.09922 -0.5271,0 -0.961182,0.05581 -0.434082,0.05581 -0.936377,0.186036 -0.04961,0.576709 -0.07441,1.116211 -0.02481,0.5333 -0.03721,0.992187 -0.0124,0.452686 -0.0124,0.620117 v 2.058789 q 0,0.812354 0.05581,1.823145 0.05581,1.00459 0.136426,1.606103 l 1.531689,0.229444 v 0.06201 h -4.681884 v -0.06201 l 1.506884,-0.229444 q 0.192237,-1.370459 0.192237,-3.317627 v -2.244824 q 0,-0.694531 -0.03101,-1.370459 -0.03101,-0.675928 -0.10542,-1.283642 -0.359668,-0.09922 -0.837158,-0.15503 -0.477491,-0.06201 -0.905371,-0.07441 -0.675928,0 -1.333252,0.111621 l -0.446485,1.475879 h -0.08682 L 61.902502,90.5108 q 0.186035,0.0124 0.539502,0.06201 0.353466,0.04341 0.58291,0.04341 z m 9.729638,0.241846 v 8.594824 h 0.434082 v -8.594824 z m 2.796729,8.836669 h -4.688086 v -0.06201 l 1.513086,-0.229444 q 0.10542,-0.775146 0.155029,-1.866552 0.05581,-1.097608 0.05581,-2.145606 V 94.34933 q 0,-2.127002 -0.186036,-3.454052 l -1.53789,-0.217041 v -0.06201 h 4.688086 v 0.06201 l -1.550293,0.217041 q -0.06821,0.601513 -0.09922,1.091406 -0.03101,0.483691 -0.05581,1.178222 -0.0248,0.68833 -0.0248,1.296045 v 1.370459 q 0,0.378272 0.0248,1.240235 0.03101,0.855761 0.07442,1.451074 0.04961,0.595312 0.09302,0.892969 l 1.537891,0.217041 z m 1.69292,-8.836669 4.483447,8.278564 0.217041,-0.42168 -4.266406,-7.856884 z m 9.035107,0.403076 -0.359668,0.725537 0.545703,7.466211 h 0.446484 L 86.304113,91.261147 Z M 75.70011,90.616225 h 2.666504 q 0.334863,0.74414 0.570507,1.215429 0.235645,0.47129 0.570508,1.103809 l 1.742529,3.230811 q 0.644922,1.16582 1.079004,1.74873 0.359668,-0.58291 1.141016,-2.083594 l 1.5875,-2.982763 q 0.682129,-1.296045 1.041797,-2.232422 h 2.654101 v 0.06201 l -1.649511,0.229443 q -0.03721,0.545703 -0.03721,1.091406 0,0.570508 0.10542,2.337842 0.111621,1.761133 0.26665,3.286621 0.155029,1.519287 0.285254,1.792139 l 1.141015,0.217041 v 0.06201 h -4.254003 v -0.06201 l 1.475878,-0.217041 q 0.04961,-0.471289 0.04961,-1.271241 0,-0.440283 -0.03101,-1.147216 -0.03101,-0.713135 -0.09922,-1.630909 -0.06201,-0.923974 -0.155029,-1.705322 -0.09302,-0.781347 -0.173633,-1.054199 -0.291455,0.465088 -0.607715,1.066601 l -2.412256,4.520655 q -0.570507,1.110009 -0.762744,1.5875 h -0.08682 Q 81.678039,99.496303 81.36178,98.869984 81.04552,98.243666 80.853283,97.890199 l -2.021582,-3.745507 q -0.514697,-0.954981 -0.84956,-1.525489 -0.04341,0.248047 -0.130225,1.128614 -0.08682,0.880566 -0.167431,1.90996 -0.07441,1.029395 -0.117823,1.754932 -0.03721,0.725537 -0.03721,1.141016 0,0.291455 0.02481,0.84956 l 1.178223,0.229444 v 0.06201 h -3.044776 v -0.06201 l 1.178223,-0.229444 q 0.08682,-0.260449 0.235645,-1.717724 0.148828,-1.457276 0.260449,-2.995166 0.111621,-1.544092 0.111621,-2.232422 0,-0.241846 -0.02481,-0.750342 -0.179834,-0.37207 -0.694531,-0.799951 L 75.70011,90.678237 Z m 15.199072,0.241846 v 8.594824 h 0.427881 v -8.594824 z m -1.885156,-0.179834 v -0.06201 h 6.604248 l 0.155029,1.928564 h -0.09922 L 95.2276,91.031703 q -0.527099,-0.03721 -1.184424,-0.03721 -1.196826,0 -1.928564,0.167432 -0.124023,1.00459 -0.124023,2.294433 0,0.806153 0.04961,1.308448 0.979785,0.05581 1.246435,0.05581 0.700733,0 1.444874,-0.08061 l 0.279052,-1.054199 h 0.10542 v 2.641699 h -0.10542 l -0.291455,-1.116211 q -0.539502,-0.06201 -1.190625,-0.06201 -0.818554,0 -1.488281,0.07441 -0.08062,0.719336 -0.04961,1.407666 0.0124,0.880567 0.031,1.457276 0.0186,0.570508 0.06821,0.985986 0.756543,0.229443 1.984375,0.229443 0.706934,0 1.190625,-0.05581 l 0.496094,-1.494482 h 0.08682 L 95.711292,99.69474 H 89.03263 v -0.06201 l 1.48208,-0.217041 q 0.04961,-0.254248 0.08682,-0.775147 0.04341,-0.520898 0.07441,-1.16582 0.03101,-0.651123 0.04341,-1.085205 0.0124,-0.440283 0.0124,-0.768946 v -1.562695 q 0,-0.297656 -0.0186,-0.843359 -0.0186,-0.551905 -0.05581,-1.141016 -0.03721,-0.589111 -0.10542,-1.178222 z"
         id="path24-2" />
      <path
         style="fill:url(#radialGradient29);stroke:none;stroke-width:0.686"
         d="m 60.209583,111.39563 v 8.60723 h 0.415478 v -8.60723 z m -2.678906,-0.22944 h 5.382617 q 0.489892,0 0.89917,-0.0248 0.409277,-0.031 1.054199,-0.093 l 0.142627,2.00918 h -0.07441 l -0.458887,-1.46348 q -0.564307,-0.0992 -1.178223,-0.0992 -0.527099,0 -0.961181,0.0558 -0.434082,0.0558 -0.936377,0.18604 -0.04961,0.57671 -0.07441,1.11621 -0.02481,0.5333 -0.03721,0.99219 -0.0124,0.45268 -0.0124,0.62011 v 2.05879 q 0,0.81236 0.05581,1.82315 0.05581,1.00459 0.136426,1.6061 l 1.531689,0.22944 v 0.062 h -4.681885 v -0.062 l 1.506885,-0.22944 q 0.192236,-1.37046 0.192236,-3.31763 v -2.24482 q 0,-0.69453 -0.03101,-1.37046 -0.03101,-0.67593 -0.10542,-1.28364 -0.359668,-0.0992 -0.837158,-0.15503 -0.477491,-0.062 -0.905372,-0.0744 -0.675927,0 -1.333252,0.11162 l -0.446484,1.47588 h -0.08682 l 0.136425,-2.03399 q 0.186036,0.0124 0.539502,0.062 0.353467,0.0434 0.582911,0.0434 z m 9.537402,5.38262 v -1.91616 q 0,-0.73794 -0.04961,-1.68672 -0.04961,-0.95498 -0.124023,-1.50069 l -1.488281,-0.21704 v -0.062 h 4.07417 q 1.159619,0 1.847949,0.46509 0.694531,0.45889 0.961181,1.0542 0.266651,0.58911 0.266651,1.01699 0,0.58911 -0.266651,1.0542 -0.26665,0.45889 -0.700732,0.73174 -0.427881,0.27285 -0.874365,0.32246 v 0.0248 q 0.421679,0.16743 0.700732,0.44649 0.217041,0.21704 0.496094,0.61391 0.279053,0.39068 0.737939,1.07281 0.458887,0.68212 0.73794,1.0666 0.279053,0.38447 0.514697,0.62632 0.520898,0.52089 1.029395,0.52089 v 0.062 h -1.079004 q -0.905371,0 -1.438672,-0.54571 -0.21084,-0.21084 -0.42168,-0.49609 -0.204639,-0.29146 -0.657324,-0.94878 -0.446484,-0.65732 -0.756543,-1.08521 -0.303857,-0.42788 -0.483691,-0.60771 -0.266651,-0.26665 -0.489893,-0.35347 -0.217041,-0.093 -0.644922,-0.093 -0.390674,0 -0.607715,0.0434 -0.03721,0.33487 -0.03721,0.74414 v 1.14722 q 0,0.72554 0.15503,1.91616 l 1.544091,0.21704 v 0.062 h -4.60747 v -0.062 l 1.457275,-0.21704 q 0.09302,-0.62631 0.148828,-1.76113 0.05581,-1.13481 0.05581,-1.65571 z m 1.234033,-2.83394 v 1.01699 q 0,0.53951 0.03721,1.00459 0.241846,0.0372 0.700732,0.0372 0.79375,0 1.277442,-0.27285 0.489892,-0.27285 0.694531,-0.70693 0.21084,-0.44029 0.21084,-0.96119 0,-0.51469 -0.204639,-0.94877 -0.198437,-0.43409 -0.520898,-0.73174 -0.31626,-0.30386 -0.713135,-0.46509 -0.390674,-0.16743 -0.768945,-0.16743 -0.359668,0 -0.564307,0.0496 -0.05581,0.35966 -0.10542,1.02939 -0.04341,0.66973 -0.04341,1.11621 z m 2.232422,3.07578 1.345654,1.95337 q 0.483691,0.68833 0.861963,0.98599 0.378271,0.29145 0.892969,0.29766 v -0.062 q -0.489893,-0.14262 -1.258838,-1.25883 l -1.079004,-1.5503 q -0.347266,-0.50849 -0.651123,-0.76894 -0.303858,-0.26045 -0.744141,-0.34727 l -0.0248,0.0496 q 0.347265,0.22324 0.657324,0.70073 z m -3.311426,-5.38261 v 8.59482 h 0.446484 v -8.59482 z m 1.699121,-0.10542 v 0.062 q 0.849561,0.0186 1.420068,0.41548 0.576709,0.39067 0.837159,0.96118 0.260449,0.57051 0.260449,1.12861 0,1.24024 -1.079004,1.79214 l 0.03721,0.0248 q 0.63252,-0.16123 1.041797,-0.68833 0.415478,-0.52709 0.415478,-1.25883 0,-0.57051 -0.223242,-1.0294 -0.223242,-0.46509 -0.607715,-0.77514 -0.378271,-0.31006 -0.84956,-0.47129 -0.471289,-0.16123 -0.948779,-0.16123 z m 8.129736,0.10542 v 8.59482 h 0.434082 v -8.59482 z m 2.796728,8.83667 h -4.688086 v -0.062 l 1.513086,-0.22944 q 0.10542,-0.77515 0.15503,-1.86655 0.05581,-1.09761 0.05581,-2.14561 v -1.04179 q 0,-2.12701 -0.186035,-3.45406 l -1.537891,-0.21704 v -0.062 h 4.688086 v 0.062 l -1.550293,0.21704 q -0.06821,0.60152 -0.09922,1.09141 -0.03101,0.48369 -0.05581,1.17822 -0.02481,0.68833 -0.02481,1.29605 v 1.37046 q 0,0.37827 0.02481,1.24023 0.03101,0.85576 0.07441,1.45107 0.04961,0.59532 0.09302,0.89297 l 1.53789,0.21704 z m 0.124025,-0.062 1.556494,-0.22944 q 0.10542,-0.5085 0.167431,-1.74253 0.06201,-1.24023 0.06201,-1.92856 v -1.99678 q 0,-0.84336 -0.04341,-1.6123 -0.04341,-0.77515 -0.117822,-1.22784 L 79.98512,111.2282 v -0.062 h 4.607471 q 0.992187,0 1.575097,0.32246 0.58291,0.31626 0.818555,0.79375 0.235644,0.47749 0.235644,1.00459 0,0.94258 -0.632519,1.49448 -0.626318,0.54571 -1.525488,0.62632 v 0.0248 q 0.930175,0.0434 1.581298,0.38447 0.657325,0.34106 0.992188,0.88057 0.334863,0.5333 0.334863,1.14721 0,0.5209 -0.260449,1.0666 -0.254248,0.54571 -0.936377,0.94258 -0.675928,0.39068 -1.816943,0.39068 h -4.985742 z m 3.91914,-8.67543 q -0.47749,0 -0.719336,0.0744 -0.155029,0.99219 -0.155029,2.35024 0,0.99219 0.03721,1.27124 0.272852,0.11162 0.737939,0.11162 0.620118,0 1.103809,-0.22324 0.483691,-0.22944 0.762744,-0.66972 0.279053,-0.44649 0.279053,-1.09761 0,-0.5023 -0.21084,-0.91157 -0.21084,-0.41548 -0.669727,-0.65733 -0.458886,-0.24804 -1.16582,-0.24804 z m 0.0124,4.14238 q -0.607715,0 -0.849561,0.0868 -0.04961,0.45269 -0.04961,1.47588 0,1.21543 0.08682,2.33164 0.353467,0.19844 0.63252,0.27286 0.285253,0.0744 0.700732,0.0744 0.657324,0 1.147217,-0.22324 0.489892,-0.22945 0.762744,-0.68213 0.279053,-0.45269 0.279053,-1.10381 0,-0.65112 -0.31626,-1.15342 -0.310059,-0.50229 -0.923975,-0.78755 -0.607715,-0.29145 -1.469677,-0.29145 z m -1.965772,-4.25401 v 8.60723 h 0.434082 v -8.60723 z m 2.120801,-0.0806 v 0.0496 q 0.675928,0.0186 1.147217,0.27905 0.47749,0.25425 0.713134,0.70073 0.235645,0.44029 0.235645,1.017 0,0.5457 -0.21084,0.96118 -0.204639,0.40927 -0.5271,0.64492 -0.32246,0.23564 -0.669726,0.32246 v 0.0682 q 0.861963,-0.11782 1.339453,-0.68213 0.483691,-0.5705 0.483691,-1.35185 0,-0.48369 -0.16123,-0.86196 -0.155029,-0.37828 -0.452686,-0.63873 -0.291455,-0.26665 -0.669726,-0.39687 -0.378272,-0.13643 -0.861963,-0.13643 -0.117822,0 -0.365869,0.0248 z m 0.68833,4.2168 v 0.0496 q 0.545703,0.0992 1.023193,0.39068 0.47749,0.28525 0.762744,0.77515 0.291455,0.48369 0.291455,1.15961 0,0.55191 -0.241845,1.0356 -0.235645,0.47749 -0.775147,0.78755 -0.533301,0.31006 -1.339453,0.31006 v 0.0496 q 0.09922,0.031 0.365869,0.031 0.781348,0 1.339453,-0.31006 0.558106,-0.31626 0.830957,-0.82475 0.279053,-0.5085 0.279053,-1.07901 0,-0.68212 -0.291455,-1.20922 -0.291455,-0.5271 -0.868164,-0.83096 -0.570508,-0.31006 -1.37666,-0.33486 z m 5.562449,-4.12378 v 8.59482 h 0.427881 v -8.59482 z m -1.885156,-0.17984 v -0.062 h 6.604248 l 0.155029,1.92857 h -0.09922 l -0.446484,-1.51309 q -0.5271,-0.0372 -1.184424,-0.0372 -1.196826,0 -1.928565,0.16743 -0.124023,1.00459 -0.124023,2.29444 0,0.80615 0.04961,1.30844 0.979786,0.0558 1.246436,0.0558 0.700732,0 1.444873,-0.0806 l 0.279053,-1.0542 h 0.10542 v 2.6417 h -0.10542 l -0.291455,-1.11621 q -0.539502,-0.062 -1.190625,-0.062 -0.818555,0 -1.488282,0.0744 -0.08061,0.71934 -0.04961,1.40767 0.0124,0.88056 0.03101,1.45727 0.0186,0.57051 0.06821,0.98599 0.756543,0.22944 1.984375,0.22944 0.706933,0 1.190625,-0.0558 l 0.496094,-1.49448 h 0.08682 l -0.136426,1.94097 h -6.678662 v -0.062 l 1.48208,-0.21704 q 0.04961,-0.25424 0.08682,-0.77514 0.04341,-0.5209 0.07441,-1.16582 0.03101,-0.65113 0.04341,-1.08521 0.0124,-0.44028 0.0124,-0.76894 v -1.5627 q 0,-0.29766 -0.0186,-0.84336 -0.0186,-0.5519 -0.05581,-1.14101 -0.03721,-0.58912 -0.10542,-1.17823 z m 10.697023,-0.0496 h -0.198437 q -0.682129,0 -1.258838,0.27285 -0.576709,0.27286 -0.911572,0.77515 -0.334864,0.5023 -0.334864,1.13482 0,0.78754 0.68833,1.47587 0.303858,0.29146 0.564307,0.4899 0.266651,0.19843 0.799951,0.5643 0.533301,0.35967 0.849561,0.59532 0.322461,0.22944 0.527099,0.44028 0.55811,0.5581 0.55811,1.24643 0,0.47129 -0.26045,0.91158 -0.254251,0.43408 -0.744144,0.71313 -0.483691,0.27285 -1.141016,0.27905 v 0.0682 q 0.756543,0.0248 1.345655,-0.26665 0.595315,-0.29146 0.905375,-0.76895 0.31626,-0.47749 0.31626,-0.98598 0,-0.44029 -0.14263,-0.79996 -0.14263,-0.35966 -0.5209,-0.73794 -0.217041,-0.21704 -0.781347,-0.60151 -0.564307,-0.39067 -1.141016,-0.78135 -0.576709,-0.39687 -0.843359,-0.65112 -0.651123,-0.64492 -0.651123,-1.42007 0,-0.68213 0.589111,-1.27124 0.595312,-0.58911 1.785937,-0.62012 z m -3.032373,6.89571 0.471289,1.52548 q 0.353467,0.16123 0.824756,0.26045 0.47749,0.0992 0.824756,0.093 0.465088,0 0.849561,-0.16123 0.390673,-0.16123 0.632519,-0.40928 0.248047,-0.24804 0.378279,-0.5581 0.13022,-0.31626 0.13022,-0.61392 0,-0.61391 -0.415481,-1.03559 -0.415479,-0.42168 -1.395264,-1.07901 -0.973584,-0.65732 -1.413867,-1.09761 -0.378272,-0.39067 -0.564307,-0.78134 -0.186035,-0.39688 -0.186035,-0.88057 0,-0.5333 0.291455,-1.0604 0.291455,-0.5271 0.89917,-0.87436 0.607715,-0.35347 1.494482,-0.35347 0.403077,0 0.855762,0.0434 0.452685,0.0372 0.626325,0.0372 0.14882,-0.006 0.27905,-0.006 0.13022,-0.006 0.20464,-0.0124 0.0806,-0.0124 0.16743,-0.0248 l 0.0372,2.1208 h -0.0806 l -0.39067,-1.43247 q -0.861968,-0.37828 -1.500689,-0.37828 -0.533301,0 -0.961182,0.20464 -0.421679,0.19844 -0.657324,0.55191 -0.235644,0.34726 -0.235644,0.78755 0,0.45888 0.316259,0.84336 0.31626,0.37827 0.861963,0.74414 0.551905,0.36586 1.178223,0.77514 0.632524,0.40928 1.010794,0.78755 0.73794,0.73794 0.73794,1.70532 0,0.54571 -0.28525,1.12862 -0.28526,0.57671 -0.96119,0.97978 -0.675927,0.40308 -1.74873,0.40308 -0.378271,0 -0.923974,-0.0434 -0.539502,-0.0434 -0.79375,-0.0434 -0.117822,0 -0.186035,0.006 -0.06201,0.006 -0.198438,0.0186 -0.136426,0.0124 -0.16123,0.0124 l -0.09922,-2.18281 z"
         id="path26-9" />
    </g>
    <path
       style="font-size:9.87777px;line-height:0.7;font-family:Gabriola;-inkscape-font-specification:Gabriola;text-align:center;text-anchor:middle;fill:#ff0000;stroke:#800000;stroke-width:0.286;stroke-linecap:round"
       d="m 70.736252,106.28262 q -0.0024,-0.0121 -0.0024,-0.0362 v -0.0386 q 0,-0.18087 0.06511,-0.30627 0.06752,-0.12782 0.173633,-0.2074 0.106109,-0.0796 0.241156,-0.11575 0.13746,-0.0362 0.274919,-0.0362 0.147105,0 0.301445,0.0338 0.154341,0.0314 0.308681,0.082 0.15434,0.0506 0.306269,0.10852 0.151928,0.0555 0.291799,0.10611 0.142282,0.0506 0.272507,0.0844 0.130224,0.0314 0.241156,0.0314 0.233922,0 0.390674,-0.0892 0.156752,-0.0916 0.258037,-0.29421 l 0.06752,0.0121 q 0.0024,0.01 0.0024,0.0193 0,0.01 0,0.0193 v 0.0362 q 0,0.18087 -0.06511,0.30627 -0.06511,0.1254 -0.173632,0.20257 -0.106109,0.0772 -0.241157,0.11335 -0.135047,0.0338 -0.272507,0.0338 -0.147105,0 -0.301445,-0.0314 -0.15434,-0.0338 -0.308681,-0.0844 -0.15434,-0.0506 -0.306268,-0.10611 -0.151929,-0.0579 -0.294211,-0.10852 -0.139871,-0.0506 -0.270096,-0.082 -0.130224,-0.0338 -0.241156,-0.0338 -0.241157,0 -0.40032,0.094 -0.159163,0.0941 -0.250803,0.29903 z m 5.40914,0.0844 q 0,-0.24357 0.05064,-0.49437 0.05064,-0.2508 0.149517,-0.48473 0.09887,-0.23633 0.243568,-0.44131 0.147105,-0.2074 0.337619,-0.36174 0.190514,-0.15434 0.424436,-0.24356 0.233921,-0.0892 0.50884,-0.0892 0.30868,0 0.545013,0.13022 0.238745,0.13023 0.40032,0.34486 0.161575,0.21221 0.243568,0.48472 0.0844,0.27251 0.0844,0.55707 0,0.24357 -0.05064,0.49437 -0.05064,0.25081 -0.151928,0.48714 -0.09888,0.23392 -0.24598,0.44132 -0.144694,0.20498 -0.335208,0.35932 -0.190513,0.15434 -0.424435,0.24357 -0.233922,0.0892 -0.50884,0.0892 -0.308681,0 -0.547426,-0.13022 -0.236333,-0.13022 -0.397908,-0.34244 -0.159163,-0.21463 -0.243568,-0.48714 -0.08199,-0.27251 -0.08199,-0.55707 z m 0.576364,-0.2291 q 0,0.16399 0.02412,0.3328 0.02653,0.16881 0.07958,0.32556 0.05306,0.15675 0.130225,0.29421 0.07958,0.13505 0.18569,0.23633 0.108521,0.10129 0.241157,0.15917 0.135047,0.0579 0.296622,0.0579 0.176045,0 0.308681,-0.0747 0.135047,-0.0772 0.23151,-0.20258 0.09887,-0.1254 0.161575,-0.28697 0.06511,-0.16158 0.103697,-0.3328 0.03858,-0.17363 0.05306,-0.34244 0.01688,-0.16881 0.01688,-0.31109 0,-0.1664 -0.02653,-0.3328 -0.02412,-0.16881 -0.07717,-0.32315 -0.05305,-0.15675 -0.132636,-0.2918 -0.07717,-0.13746 -0.18569,-0.23633 -0.106109,-0.10129 -0.241157,-0.15916 -0.132636,-0.0579 -0.294211,-0.0579 -0.176044,0 -0.311092,0.0748 -0.132636,0.0747 -0.23151,0.20016 -0.09646,0.1254 -0.161575,0.28697 -0.0627,0.16158 -0.101286,0.3328 -0.03858,0.17122 -0.05547,0.34244 -0.01447,0.16881 -0.01447,0.30868 z m 4.008022,-1.69292 q 0.120578,0.005 0.23151,0.007 0.113343,0.002 0.209806,0.005 0.09887,0 0.176044,0.002 0.07958,0 0.135048,0 0.110932,0 0.209806,-0.007 0.09887,-0.007 0.16881,-0.0145 0.02653,0.0916 0.02653,0.14469 0,0.10611 -0.08923,0.13987 -0.08682,0.0338 -0.253214,0.0338 -0.166398,0 -0.371381,-0.0169 -0.204983,-0.0193 -0.450963,-0.0362 -0.0096,0.28698 -0.02412,0.6246 -0.01447,0.33761 -0.03858,0.69935 -0.0217,0.36173 -0.05547,0.73553 -0.03376,0.37138 -0.0844,0.72588 -0.04823,0.3545 -0.115756,0.67524 -0.06752,0.32315 -0.156751,0.58601 -0.142283,0.41237 -0.320738,0.68729 -0.178456,0.27733 -0.381028,0.44373 -0.20016,0.16881 -0.414789,0.23875 -0.217041,0.0723 -0.43167,0.0723 -0.185691,0 -0.342442,-0.041 -0.159164,-0.041 -0.274919,-0.11094 -0.115755,-0.0699 -0.180867,-0.16398 -0.06752,-0.0916 -0.06752,-0.19534 0,-0.0579 0.02653,-0.11575 0.02653,-0.0555 0.07476,-0.0989 0.04582,-0.0434 0.110932,-0.0724 0.0627,-0.0265 0.137459,-0.0265 0.06994,0.1254 0.15434,0.21221 0.08441,0.0892 0.180868,0.1447 0.09646,0.0579 0.200159,0.0844 0.103698,0.0265 0.209807,0.0265 0.27733,0 0.470255,-0.18087 0.195337,-0.17845 0.325561,-0.50884 0.132636,-0.32797 0.207395,-0.7934 0.07476,-0.46543 0.113343,-1.03456 0.041,-0.57154 0.05306,-1.23231 0.01447,-0.66318 0.01929,-1.38906 -0.226687,0.002 -0.419612,0.0169 -0.192925,0.0145 -0.32315,0.0627 -0.0096,-0.0217 -0.0096,-0.0458 0,-0.0579 0.05547,-0.10611 0.05547,-0.0506 0.15434,-0.0892 0.101286,-0.0386 0.241157,-0.0627 0.142282,-0.0241 0.313503,-0.0314 0.0096,-0.22669 0.02412,-0.43167 0.01447,-0.2074 0.03617,-0.40756 0.02412,-0.20257 0.05788,-0.40514 0.03376,-0.20257 0.0844,-0.41961 0.06511,-0.28215 0.16881,-0.50643 0.103697,-0.22669 0.233922,-0.40032 0.132636,-0.17604 0.284564,-0.30144 0.154341,-0.12541 0.315916,-0.20499 0.161574,-0.082 0.327972,-0.11816 0.166398,-0.0386 0.325562,-0.0386 0.233921,0 0.414789,0.0627 0.183279,0.0603 0.30868,0.16158 0.127813,0.0989 0.192925,0.22427 0.06752,0.1254 0.06752,0.25563 0,0.10128 -0.03376,0.18087 -0.03135,0.0796 -0.08923,0.13504 -0.05547,0.0531 -0.130224,0.082 -0.07476,0.0289 -0.159163,0.0289 -0.110932,0 -0.233922,-0.0555 l -0.0096,-0.0265 q 0.04582,-0.10611 0.06752,-0.18569 0.02412,-0.0796 0.02412,-0.16399 0,-0.11575 -0.04823,-0.19774 -0.04582,-0.0844 -0.12299,-0.13746 -0.07476,-0.0531 -0.16881,-0.0772 -0.09164,-0.0241 -0.183279,-0.0241 -0.270095,0 -0.458197,0.12058 -0.185691,0.12058 -0.311092,0.3328 -0.12299,0.2098 -0.195337,0.49678 -0.07235,0.28456 -0.110932,0.61495 -0.03617,0.33038 -0.05305,0.69212 -0.01447,0.35932 -0.02653,0.71864 z m 2.97587,1.83762 q -0.0024,-0.0121 -0.0024,-0.0362 v -0.0386 q 0,-0.18087 0.06511,-0.30627 0.06752,-0.12782 0.173633,-0.2074 0.106108,-0.0796 0.241156,-0.11575 0.137459,-0.0362 0.274918,-0.0362 0.147106,0 0.301446,0.0338 0.15434,0.0314 0.30868,0.082 0.154341,0.0506 0.306269,0.10852 0.151929,0.0555 0.2918,0.10611 0.142282,0.0506 0.272506,0.0844 0.130225,0.0314 0.241157,0.0314 0.233922,0 0.390673,-0.0892 0.156752,-0.0916 0.258038,-0.29421 l 0.06752,0.0121 q 0.0024,0.01 0.0024,0.0193 0,0.01 0,0.0193 v 0.0362 q 0,0.18087 -0.06511,0.30627 -0.06511,0.1254 -0.173633,0.20257 -0.106109,0.0772 -0.241156,0.11335 -0.135048,0.0338 -0.272507,0.0338 -0.147105,0 -0.301446,-0.0314 -0.15434,-0.0338 -0.30868,-0.0844 -0.15434,-0.0506 -0.306269,-0.10611 -0.151928,-0.0579 -0.294211,-0.10852 -0.13987,-0.0506 -0.270095,-0.082 -0.130224,-0.0338 -0.241156,-0.0338 -0.241157,0 -0.40032,0.094 -0.159164,0.0941 -0.250803,0.29903 z"
       id="text27"
       aria-label="~ of ~" />
  </g>
</svg>
